<svg xmlns="http://www.w3.org/2000/svg" viewBox="0 0 180 180" width="180" height="180">
  <defs>
    <radialGradient id="bg" cx="30%" cy="25%" r="90%">
      <stop offset="0%" stop-color="#1c5240"/>
      <stop offset="100%" stop-color="#061713"/>
    </radialGradient>
  </defs>
  <rect x="0" y="0" width="180" height="180" rx="40" fill="url(#bg)"/>
  <g transform="translate(90 90) scale(2.35) translate(-32 -32)">
    <path d="M32 14 L20 24 L18 20 Z" fill="#79e2b3"/>
    <path d="M32 14 L44 24 L46 20 Z" fill="#79e2b3"/>
    <path d="M22 24 Q32 20 42 24 Q46 32 42 40 Q37 46 32 46 Q27 46 22 40 Q18 32 22 24 Z" fill="#79e2b3"/>
    <circle cx="27" cy="32" r="1.7" fill="#061713"/>
    <circle cx="37" cy="32" r="1.7" fill="#061713"/>
    <path d="M30 38 Q32 40 34 38" stroke="#061713" stroke-width="1.4" fill="none" stroke-linecap="round"/>
  </g>
</svg>
